<?xml version="1.0" encoding="UTF-8"?>
<!DOCTYPE svg PUBLIC "-//W3C//DTD SVG 1.1//EN" "http://www.w3.org/Graphics/SVG/1.1/DTD/svg11.dtd">
<!-- Creator: CorelDRAW -->
<svg xmlns="http://www.w3.org/2000/svg" xml:space="preserve" width="9.74078in" height="2.94298in" version="1.1" style="shape-rendering:geometricPrecision; text-rendering:geometricPrecision; image-rendering:optimizeQuality; fill-rule:evenodd; clip-rule:evenodd"
viewBox="0 0 9103.81 2750.53"
 xmlns:xlink="http://www.w3.org/1999/xlink"
 xmlns:xodm="http://www.corel.com/coreldraw/odm/2003">
 <defs>
  <style type="text/css">
   <![CDATA[
    .fil0 {fill:#E435AB}
    .fil3 {fill:#FDB283}
    .fil5 {fill:#FE8338}
    .fil1 {fill:#FEC7A5}
    .fil2 {fill:#FED3B8}
    .fil4 {fill:#FF2D20}
    .fil6 {fill:#FFFEFE}
   ]]>
  </style>
 </defs>
 <g id="Layer_x0020_1">
  <metadata id="CorelCorpID_0Corel-Layer"/>
  <path class="fil0" d="M7161.97 1985.21l1458.97 0c-6.22,23.31 -18.84,20.6 -61.98,45.46l-67 40.45c-23.56,14.16 -45.39,25.4 -68.65,38.79l-139.93 80.62c-25.04,14 -48.42,25.58 -71.91,41.19 -45.76,30.4 -95.26,52.15 -139.06,81.48 -60.46,-40.48 -71.5,-70.36 -176.28,-78.57 -25.36,-1.99 -83.08,11.99 -102.62,20.2 -34.74,14.61 -52.41,31.03 -77.36,52.71l-417.38 -238.59c-20.13,-12.1 -125.09,-67.76 -136.8,-83.74zm-67.86 -243.16l546.79 -940.46c30.61,-54.92 59.61,-103.13 90.48,-158.34l92.22 -156.59 73.51 5.65c31.39,0 33.53,-5.65 62.2,-5.65 14.87,28.09 26.36,47.84 42.85,75.9l409.54 710.13c29.07,53.68 61.92,102.12 92.22,156.59 18.09,32.5 173.26,292.85 179.21,318.42 -25.54,38.13 -47.96,51.97 -62.2,113.09l-1464.62 0c-1.03,-46.28 -41.91,-88.45 -62.21,-118.75zm-107.44 -56.55l0 -644.66c31.27,-2.6 47.82,-16.44 71.18,-30.61 22.62,-13.71 38.62,-28.04 54.2,-47.58 43.07,-53.99 74.53,-158.44 44.26,-221.52l346.07 -196.8c5.19,-3.26 11.22,-7.73 17.07,-11.2 9.83,-5.81 8.31,-4.2 18.54,-9.74 14.96,-8.1 20.42,-13.41 35,-21.55l104.62 -59.37c14.9,-9.16 19.62,-13.61 38.53,-18.01 -5.69,24.45 -73.51,129.47 -90.19,158.61l-363.94 631.33c-30.81,55.11 -58.67,103.61 -91.18,157.63l-170.39 293.31c-3.71,5.81 -3.08,5.2 -6.59,10.37 -7.96,11.72 -1.56,3.33 -7.18,9.79zm1074.44 -1261.04c29.81,6.94 271.6,150.65 312.8,173.51 14.43,8.01 20.58,13.72 34.47,22.08l140.79 79.75c25.36,14.18 47.48,28.48 71.77,41.33 -1.67,20 -11.31,44.56 -11.31,62.21 0,67.3 33.82,131.58 71.35,171.81l5.49 5.81c26.32,26.48 70.04,56.57 109.77,59.88l0 644.66c-18.99,-13.92 -170.06,-286.38 -185.53,-312.11l-91.56 -157.25c-28.8,-53.18 -61.71,-105.14 -90.48,-158.34l-182.74 -314.89c-32.39,-54.06 -58.74,-103.01 -91.1,-157.71l-67.78 -118.84c-10.22,-16.97 -16.92,-24.85 -25.95,-41.91zm-418.47 -175.3c0,18.42 7.53,51.63 11.31,67.86l-554.18 316.67c-53.12,-35.57 -90.13,-73.51 -180.96,-73.51 -63.85,0 -138.56,38.93 -171.3,71.86 -91.76,92.29 -90.97,230.7 -15.45,329.78 45.45,59.63 92.37,64.66 130.2,84.69l0 639c-177.71,41.4 -247.83,270.46 -120.32,403.06 88.07,91.59 224.82,104.25 324.05,32.52 14.24,-10.3 19.42,-18.82 33.77,-28.43 97.07,65 350.76,200.73 479.58,278.17l74.6 38.5c-17.75,76.16 -12.25,146.05 33.81,209.35 21.35,29.34 31.52,40.9 61.43,62.98 12.53,9.25 26.68,15.15 40.32,21.89 172.57,85.3 345.12,-75.19 345.12,-198.08 0,-79.26 3.42,-38.56 -11.31,-101.79l445.62 -255.59c12.68,-7.98 23.21,-12.64 36.14,-20.41 24.69,-14.84 47.62,-27.55 72.42,-40.67 57.71,86.19 238.49,121.01 349.25,9.96 121.73,-122.04 92.65,-302.09 -46.13,-386.59 -11.94,-7.27 -20.33,-11.51 -34.57,-16.33 -17.29,-5.86 -31.05,-4.92 -31.05,-25.5l0 -610.73c0,-31.57 38.45,-0.81 123.11,-86.12 169.49,-170.77 -12.09,-496.37 -280.78,-388.23 -36.91,14.85 -45.53,31.05 -74.18,50.23 -18.5,-4.31 -52.02,-26.38 -70.26,-37.18l-207.91 -120.07c-23.71,-14.25 -43.71,-25.06 -68.51,-38.93l-207.49 -120.49c1.24,-55.8 25.53,-129.14 -38.72,-210.1 -7.44,-9.39 -17.37,-22.96 -25.07,-31.47 -134.75,-149.05 -422.53,-52.8 -422.53,173.72z"/>
  <path class="fil1" d="M4661.89 1922.15c-13.33,-12.63 -37.23,-7.82 -63.66,-7.77 -145.09,0.25 -341.77,-4.72 -473.85,0.34 53.8,22.56 435.55,-5.62 537.51,7.43z"/>
  <path class="fil2" d="M4119.75 1523.11l540.14 -3.83 -8.4 -6.53 -13.39 4.67c-87.17,-0.63 -174.2,-0.63 -261.23,-0.63 -54.09,0 -221.3,-11.76 -257.12,6.31z"/>
  <path class="fil1" d="M3951.82 1750.27l-0.07 -63.7c-11.03,19.05 -11.13,44.67 0.07,63.7z"/>
  <path class="fil3" d="M4586.51 2503.72l-52.6 0.85c17.65,8.93 34.74,10.29 52.6,-0.85z"/>
  <path class="fil3" d="M4359.74 1161.43l-0.11 -49.94c-9.16,19.13 -9.37,30.75 0.11,49.94z"/>
  <path class="fil2" d="M4048.68 1892.6c0,-9.74 2.16,-6.88 -8.46,-6.46 0,8.69 -1.8,5.56 8.46,6.46z"/>
  <path class="fil3" d="M3985.77 1600.28c-9.96,0 -7.39,-2.44 -7.3,7.7 8.92,0 5.99,2.01 7.3,-7.7z"/>
  <path class="fil2" d="M5314.41 1822.43c-9.73,0 -7.02,-2.26 -6.82,8.02 8.8,0 5.81,1.92 6.82,-8.02z"/>
  <path class="fil1" d="M4394.63 2197.45c-8.9,0 -5.88,-1.91 -6.6,8.24 9.32,0 6.41,2.06 6.6,-8.24z"/>
  <path class="fil1" d="M4394.95 1250.56c-0.28,-10.16 2.54,-8.02 -6.84,-8.02 0.77,10.01 -2.16,8.02 6.84,8.02z"/>
  <path class="fil1" d="M3986.64 1834.64c-0.23,-10.16 2.55,-7.95 -6.99,-7.95 1.04,9.92 -1.93,7.95 6.99,7.95z"/>
  <path class="fil3" d="M4036.29 1549.91c-9.95,-0 -7.5,-2.51 -7.5,7.38 9.48,-1.52 7.5,1.39 7.5,-7.38z"/>
  <path class="fil1" d="M4038.83 1885.75c0,-9.31 2.12,-6.5 -7.96,-6.79 0,8.85 -1.94,5.9 7.96,6.79z"/>
  <path class="fil1" d="M4452.04 965.92c-9.61,0.83 -7.55,-1.94 -7.55,6.99 9.67,-0.6 7.55,2.12 7.55,-6.99z"/>
  <path class="fil2" d="M4445.99 2140.96c-9.71,0 -7.47,-2.54 -7.47,6.83 9.2,-0.43 6.9,2.05 7.47,-6.83z"/>
  <path class="fil1" d="M5302.65 1839.21c-9.24,0 -6.6,-2.22 -7.34,7.3 8.95,0 6.2,2.1 7.34,-7.3z"/>
  <path class="fil1" d="M4400.23 2425.71c-0.28,-9.56 2.23,-7.27 -7.14,-7.27 1.01,9.33 -1.7,7.27 7.14,7.27z"/>
  <path class="fil1" d="M4673.01 2470.07c-9.71,0.55 -7.65,-2.2 -7.65,6.8 9.64,-0.78 7.65,2.02 7.65,-6.8z"/>
  <path class="fil1" d="M4394.15 1021.8c-9.14,0 -6.48,-2.14 -6.92,7.5 8.83,0 6.07,2.02 6.92,-7.5z"/>
  <path class="fil2" d="M4462.77 2123.57c-9.47,0 -7.08,-2.36 -7.08,7.14 8.98,-0.51 6.61,1.86 7.08,-7.14z"/>
  <path class="fil3" d="M4467.66 1331.13c0,-9.54 2.43,-7.24 -6.96,-7.24 0.45,9.09 -1.97,6.78 6.96,7.24z"/>
  <path class="fil2" d="M5228.63 1913.22c-8.89,0.5 -6.48,-1.81 -6.92,7.24 9.35,0 6.92,2.29 6.92,-7.24z"/>
  <path class="fil3" d="M4871.8 2277.2c-9.64,0 -7.33,-2.47 -7.33,6.99 8.89,-0.64 6.52,1.76 7.33,-6.99z"/>
  <path class="fil3" d="M4422.63 2454.46c0,-9.22 2.21,-6.73 -7.34,-6.73 0.54,8.77 -1.72,6.34 7.34,6.73z"/>
  <path class="fil1" d="M4684.03 984.35c0,-8.95 2.15,-6.3 -7.05,-7.4 0,9.1 -2.21,6.51 7.05,7.4z"/>
  <path class="fil2" d="M4444.65 2470.77c1.61,-8.96 3.01,-6.16 -6.94,-5.89 0,8.22 -1.88,5.81 6.94,5.89z"/>
  <path class="fil3" d="M4996 1289.69c1.07,-8.92 2.97,-6.49 -6.21,-6.81 0,8.85 -2.31,6.82 6.21,6.81z"/>
  <path class="fil3" d="M4451.13 2476.91c0,-8.27 2.01,-6.06 -6.48,-6.14 -1.56,8.92 -3.12,6.33 6.48,6.14z"/>
  <path class="fil2" d="M5199.8 1494.43c0.5,-8.68 2.43,-6.31 -6.59,-6.31 0.47,8.91 -1.97,7.08 6.59,6.31z"/>
  <path class="fil3" d="M4439.11 1302.74c0,-8.84 2.3,-6.92 -6.25,-6.45 -1.04,8.54 -2.76,6.06 6.25,6.45z"/>
  <path class="fil2" d="M5262.87 1879.31c-8.81,0.68 -7.07,-1.81 -6.35,6.51 8.69,0.54 6.35,2.48 6.35,-6.51z"/>
  <path class="fil2" d="M5206.27 1500.77c0,-9.03 2.33,-7.09 -6.48,-6.34 -0.51,8.23 -2.27,5.76 6.48,6.34z"/>
  <path class="fil3" d="M4843.59 2305.79c-8.98,0 -7.11,-2.41 -6.8,6.06 8.6,0.74 6.25,2.67 6.8,-6.06z"/>
  <path class="fil2" d="M4434.4 2151.99c-8.8,0 -6.74,-2.23 -6.43,6.45 8.41,0.59 5.96,2.4 6.43,-6.45z"/>
  <path class="fil3" d="M4978.85 1272.68c0.84,-8.39 2.54,-5.87 -6.4,-6.43 0,8.78 -2.24,6.74 6.4,6.43z"/>
  <path class="fil3" d="M4404.9 2180.51c-8.55,-0.98 -5.96,-2.57 -5.95,6.76 8.24,0 5.93,1.93 5.95,-6.76z"/>
  <path class="fil3" d="M4485.03 1347.69c0,-8.88 2.38,-6.99 -6.02,-6.77 -0.94,8.58 -2.78,6.18 6.02,6.77z"/>
  <path class="fil3" d="M4450.19 1313.18c0.47,-8.57 2.39,-6.25 -6.48,-6.25 0.59,8.81 -1.88,7.08 6.48,6.25z"/>
  <path class="fil2" d="M5256.52 1885.82c-8.14,-0.56 -5.64,-2.27 -6.35,6.43 8.99,0 7.06,2.32 6.35,-6.43z"/>
  <path class="fil3" d="M4689.47 2459.69c-8.87,-0.89 -6.72,-2.94 -6.72,5.87 8.83,-0.36 7.19,2.17 6.72,-5.87z"/>
  <path class="fil1" d="M5303 1597.04c-0.84,-8.86 1.77,-7.26 -6.38,-6.5 -0.29,8.7 -2.38,6.5 6.38,6.5z"/>
  <path class="fil2" d="M5296.63 1590.55c0.29,-8.5 2.24,-6.19 -6.59,-6.19 0.67,8.7 -1.76,6.92 6.59,6.19z"/>
  <path class="fil3" d="M4853.71 2294.64c-8.58,-0.5 -6.22,-2.39 -6.22,6.58 8.55,-0.86 6.78,1.59 6.22,-6.58z"/>
  <path class="fil3" d="M4860.12 2288.29c-8.9,0 -6.96,-2.3 -6.41,6.35 8.1,0.5 5.62,2.24 6.41,-6.35z"/>
  <path class="fil3" d="M4496.26 1357.87c0.43,-8.6 2.37,-6.28 -6.52,-6.28 0.85,8.55 -1.61,6.78 6.52,6.28z"/>
  <path class="fil3" d="M4825.73 2323.26c-8.03,-0.19 -6.12,-2.19 -6.03,5.7 9.07,1.24 7.18,3.27 6.03,-5.7z"/>
  <path class="fil3" d="M5024.91 1317.38c0.92,-8.37 2.44,-5.99 -6.55,-5.01 -0.06,7.81 -1.8,5.64 6.55,5.01z"/>
  <path class="fil3" d="M4785.83 2363.03c-7.8,-0.79 -5.75,-2.53 -6.03,5.36 8.59,1.59 6.58,3.37 6.03,-5.36z"/>
  <path class="fil3" d="M4808.92 2340.65c-8.19,-0.54 -6.38,-2.58 -6.2,5.32 8.65,0.88 6.93,3.01 6.2,-5.32z"/>
  <path class="fil2" d="M5148.89 1443.23c0.24,-7.85 2.1,-5.85 -5.89,-5.68 -0.72,8.62 -2.69,6.73 5.89,5.68z"/>
  <path class="fil3" d="M5029.96 1323.74c0.79,-8.64 3.04,-7.06 -5.05,-6.36 -0.81,8.42 -2.94,6.72 5.05,6.36z"/>
  <path class="fil3" d="M4813.88 2334.11c-7.78,-0.02 -5.64,-1.77 -4.96,6.53 8.16,0.6 5.88,2.2 4.96,-6.53z"/>
  <path class="fil3" d="M4432.86 1296.29c0.95,-8.46 3.08,-6.77 -4.98,-6.34 -0.71,8.42 -2.91,6.81 4.98,6.34z"/>
  <path class="fil3" d="M4427.88 1289.95c0.75,-7.8 2.52,-5.82 -5.29,-5.97 -1.32,8.34 -3.12,6.38 5.29,5.97z"/>
  <path class="fil1" d="M4745.31 2401.93c-8.22,-0.56 -6.53,-2.66 -6.17,5.16 8.39,0.79 6.68,2.88 6.17,-5.16z"/>
  <path class="fil1" d="M5115 1408.92c0.32,-7.86 1.98,-5.7 -6.38,-4.97 -0.31,7.86 -1.98,5.7 6.38,4.97z"/>
  <path class="fil1" d="M5091.32 1387.16c0.49,-8.1 2.52,-6.33 -5.27,-6.12 -0.74,8.34 -2.79,6.58 5.27,6.12z"/>
  <path class="fil1" d="M5154.74 1448.62c0.4,-8.25 2.35,-6.45 -5.85,-5.4 -0.24,7.84 -2.09,5.94 5.85,5.4z"/>
  <path class="fil1" d="M5160.23 1454.35c1.18,-8.26 2.92,-6.27 -5.49,-5.72 -0.4,7.77 -2.26,5.89 5.49,5.72z"/>
  <path class="fil3" d="M4836.78 2311.85c-8.33,-0.7 -6.66,-2.82 -6.21,5.09 8.19,0.56 6.51,2.67 6.21,-5.09z"/>
  <path class="fil1" d="M5137.53 1431.74c0.56,-8.19 2.62,-6.45 -5.26,-6.07 -0.44,8.11 -2.5,6.38 5.26,6.07z"/>
  <path class="fil1" d="M5143 1437.55c0.72,-8.02 2.56,-6.1 -5.47,-5.81 -0.58,7.9 -2.42,5.99 5.47,5.81z"/>
  <path class="fil3" d="M4376.65 2388.42l-5.29 -10.42c-0.96,12.26 -4.64,10.42 5.29,10.42z"/>
  <path class="fil3" d="M5330.19 1643.76c0.89,-11.72 4.31,-9.79 -5.58,-9.79l5.58 9.79z"/>
  <path class="fil2" d="M4388.12 2207.69l-5.92 9.29c9.92,0 6.73,2.03 5.92,-9.29z"/>
  <path class="fil3" d="M5329.97 1792.9l-5.41 9.97c9.66,0 6.13,1.84 5.41,-9.97z"/>
  <path class="fil3" d="M4645.1 2486.96l-9.67 5.58c11.56,0.7 9.67,4.09 9.67,-5.58z"/>
  <path class="fil3" d="M4661.91 967.28c0,-9.95 2.13,-6.95 -8.88,-6.22l8.88 6.22z"/>
  <path class="fil1" d="M4376.3 2229.57l-5.19 10.15c9.25,0 5.63,1.7 5.19,-10.15z"/>
  <path class="fil1" d="M4389 2408.51c0.26,-11.17 3.55,-9.3 -5.82,-9.3l5.82 9.3z"/>
  <path class="fil3" d="M4377.32 1050.17c-9.45,0 -6.26,-1.89 -5.65,9.16l5.65 -9.16z"/>
  <path class="fil3" d="M5324.67 1631.96c0.61,-10.83 3.64,-8.83 -5.91,-8.83l5.91 8.83z"/>
  <path class="fil1" d="M4383.16 2397.24c0.4,-10.86 3.52,-8.94 -5.84,-8.94l5.84 8.94z"/>
  <path class="fil3" d="M4656.34 2481.48l-9.46 5.39c11.22,0.39 9.46,3.75 9.46,-5.39z"/>
  <path class="fil3" d="M4650.7 961.29c0,-9.34 1.92,-6.23 -8.88,-5.89l8.88 5.89z"/>
  <path class="fil3" d="M3968.84 1807.34l-5.66 -8.86c-0.52,10.74 -3.61,8.86 5.66,8.86z"/>
  <path class="fil1" d="M5246.6 1896.86l-7.45 7.33c9.89,0 7.45,2.49 7.45,-7.33z"/>
  <path class="fil1" d="M5274.61 1868.13l-7.19 7.48c9.7,0 7.19,2.38 7.19,-7.48z"/>
  <path class="fil3" d="M5324.45 1804.72l-5.94 8.33c9.05,0 6.14,1.92 5.94,-8.33z"/>
  <path class="fil2" d="M5291.33 1851.03l-6.9 7.38c9.39,0 6.9,2.27 6.9,-7.38z"/>
  <path class="fil3" d="M4513.8 1375.83c0,-9.59 2.44,-7.27 -7.01,-7.27l7.01 7.27z"/>
  <path class="fil3" d="M4888.38 2259.77c-9.44,0 -7.03,-2.33 -7.03,7.21l7.03 -7.21z"/>
  <path class="fil3" d="M4967.98 1262.24l-6.81 -7.41c0,9.65 -2.51,7.41 6.81,7.41z"/>
  <path class="fil3" d="M4933.86 1228.17l-7.5 -6.71c0,9.27 -2.19,6.71 7.5,6.71z"/>
  <path class="fil3" d="M4950.93 1245.11l-7.22 -6.97c0,9.39 -2.31,6.97 7.22,6.97z"/>
  <path class="fil2" d="M5217.46 1512.23c0,-9.51 2.41,-7.19 -7.01,-7.19l7.01 7.19z"/>
  <path class="fil3" d="M5063.5 1358.27c1.67,-9.49 3.79,-7.77 -5.52,-6l5.52 6z"/>
  <path class="fil1" d="M5189.75 1483.38c0,-9.41 2.47,-7.63 -6.53,-6.33l6.53 6.33z"/>
  <path class="fil3" d="M4405.66 1006.59c-9.01,-1.71 -6.7,-3.56 -6.84,5.65l6.84 -5.65z"/>
  <path class="fil3" d="M4774.16 2373.95l-6.13 5.22c9.4,1.59 7.86,3.84 6.13,-5.22z"/>
  <path class="fil1" d="M4796.45 2350.83c-9.14,-1.54 -7.08,-3.27 -5.35,6.01l5.35 -6.01z"/>
  <path class="fil3" d="M4757.21 2391.03l-5.77 5.77c9.16,1.48 7.24,3.4 5.77,-5.77z"/>
  <path class="fil1" d="M5011.96 1307.76l-5.56 -6.03c-1.31,9.26 -3.46,7.54 5.56,6.03z"/>
  <path class="fil3" d="M4427.79 983.1c-9.23,-1.08 -7.48,-3.24 -5.99,5.74l5.99 -5.74z"/>
  <path class="fil3" d="M4479.01 1340.93c0.94,-8.86 2.85,-6.52 -6.25,-6.52l6.25 6.52z"/>
  <path class="fil3" d="M4456.91 1319.27c0,-8.95 2.22,-6.89 -6.72,-6.09l6.72 6.09z"/>
  <path class="fil1" d="M4779.79 2368.39c-9.1,-1.58 -7.28,-3.49 -5.63,5.56l5.63 -5.56z"/>
  <path class="fil1" d="M5040.92 1335.29l-6.09 -5.22c-1.55,8.92 -3.13,6.72 6.09,5.22z"/>
  <path class="fil2" d="M5183.22 1477.05l-5.63 -6c-1.26,9.1 -3.32,7.28 5.63,6z"/>
  <path class="fil1" d="M4417.2 2168.61c-9.03,0 -7.01,-2.33 -6.56,6.49l6.56 -6.49z"/>
  <path class="fil3" d="M4985 1279.27l-6.15 -6.59c-0.8,8.84 -2.79,6.59 6.15,6.59z"/>
  <path class="fil1" d="M4411.58 1001.04l-5.92 5.55c8.91,1.71 6.89,3.51 5.92,-5.55z"/>
  <path class="fil1" d="M4422.59 1283.98c1.34,-8.97 3.21,-7.06 -5.77,-5.59l5.77 5.59z"/>
  <path class="fil3" d="M4791.1 2356.83l-5.27 6.2c8.93,0.8 7.01,2.72 5.27,-6.2z"/>
  <path class="fil2" d="M4427.97 2158.44c-8.78,-0.57 -6.53,-2.59 -6.53,6.3l6.53 -6.3z"/>
  <path class="fil3" d="M4502.8 1364.21c0,-8.87 2.24,-6.83 -6.53,-6.34l6.53 6.34z"/>
  <path class="fil3" d="M4434.44 977.37l-6.65 5.73c8.8,1.1 6.65,3.07 6.65,-5.73z"/>
  <path class="fil1" d="M5057.98 1352.27l-5.5 -5.61c-1.29,9.04 -3.32,7.37 5.5,5.61z"/>
  <path class="fil3" d="M4411.04 1272.74c0.78,-8.49 2.45,-5.95 -6.72,-5.95l6.72 5.95z"/>
  <path class="fil2" d="M5166.04 1460.16l-5.8 -5.81c-1.17,8.81 -3.06,6.83 5.8,5.81z"/>
  <path class="fil1" d="M4768.03 2379.18c-8.75,-1.67 -6.7,-3.44 -5.98,5.48l5.98 -5.48z"/>
  <path class="fil1" d="M5068.93 1364.18l-5.43 -5.91c-1.72,8.74 -3.48,6.72 5.43,5.91z"/>
  <path class="fil3" d="M4694.87 2453.56l-5.41 6.13c8.68,0.92 6.62,2.72 5.41,-6.13z"/>
  <path class="fil3" d="M5047.18 1340.5c0.64,-8.71 2.52,-6.74 -6.26,-5.21l6.26 5.21z"/>
  <path class="fil3" d="M4416.82 1278.4l-5.77 -5.66c-0.72,8.86 -2.83,7.17 5.77,5.66z"/>
  <path class="fil1" d="M4711.35 2436.01c-8.7,-0.93 -6.8,-2.87 -5.71,5.81l5.71 -5.81z"/>
  <path class="fil1" d="M4728.34 2418.95c-8.82,-1.07 -7.12,-3.21 -6.17,5.31l6.17 -5.31z"/>
  <path class="fil1" d="M5079.99 1375.85l-5.82 -5.66c-0.81,8.61 -2.76,6.73 5.82,5.66z"/>
  <path class="fil3" d="M5052.48 1346.66c1.3,-8.59 3.23,-6.69 -5.3,-6.16l5.3 6.16z"/>
  <path class="fil1" d="M4739.14 2407.08c-8.35,-0.87 -6.12,-2.48 -5.14,6.33l5.14 -6.33z"/>
  <path class="fil1" d="M5108.62 1403.95l-5.5 -5.95c-1.03,8.59 -3,6.73 5.5,5.95z"/>
  <path class="fil1" d="M4734 2413.41l-5.66 5.54c8.55,1.11 6.7,2.99 5.66,-5.54z"/>
  <path class="fil1" d="M4751.44 2396.8c-8.51,-1.45 -6.63,-3.34 -6.13,5.13l6.13 -5.13z"/>
  <path class="fil3" d="M5006.39 1301.73c1.35,-8.38 3.11,-6.37 -5.41,-5.88l5.41 5.88z"/>
  <path class="fil1" d="M4700.47 2447.89c-8.56,-0.59 -6.88,-2.66 -5.6,5.67l5.6 -5.67z"/>
  <path class="fil1" d="M5126.05 1420.59l-5.67 -5.78c-0.72,8.48 -2.71,6.65 5.67,5.78z"/>
  <path class="fil1" d="M5103.12 1398c1.04,-8.46 2.93,-6.62 -5.49,-5.7l5.49 5.7z"/>
  <path class="fil1" d="M5177.59 1471.05c1.29,-8.34 3.03,-6.34 -5.46,-5.75l5.46 5.75z"/>
  <path class="fil1" d="M4421.79 988.84l-5.28 5.86c8.46,0.5 6.73,2.48 5.28,-5.86z"/>
  <path class="fil3" d="M4819.71 2328.96c-8.52,-1.23 -6.82,-3.19 -5.82,5.15l5.82 -5.15z"/>
  <path class="fil1" d="M4762.06 2384.66c-8.28,-0.33 -6.27,-2.13 -4.85,6.38l4.85 -6.38z"/>
  <path class="fil1" d="M5086.04 1381.04c0.79,-8.28 2.49,-6.21 -6.05,-5.19l6.05 5.19z"/>
  <path class="fil3" d="M5034.83 1330.07c1.44,-8.49 3.42,-6.68 -4.87,-6.33l4.87 6.33z"/>
  <path class="fil1" d="M4705.64 2441.82l-5.17 6.07c8.24,0.62 6.23,2.38 5.17,-6.07z"/>
  <path class="fil1" d="M5097.62 1392.29l-6.31 -5.13c-0.53,8.15 -2.23,6.01 6.31,5.13z"/>
  <path class="fil1" d="M5074.18 1370.19c0.78,-8.51 2.9,-6.86 -5.25,-6.01l5.25 6.01z"/>
  <path class="fil3" d="M4830.57 2316.94c-8.09,-0.62 -5.92,-2.23 -4.84,6.31l4.84 -6.31z"/>
  <path class="fil3" d="M4802.72 2345.96l-6.27 4.86c8.32,1.46 6.45,3.35 6.27,-4.86z"/>
  <path class="fil1" d="M4717.34 2430.75l-5.99 5.26c8.39,0.91 6.63,2.92 5.99,-5.26z"/>
  <path class="fil1" d="M4416.52 994.7c-8.04,-0.54 -5.87,-2.17 -4.94,6.35l4.94 -6.35z"/>
  <path class="fil1" d="M5120.38 1414.82c0.71,-8.4 2.76,-6.69 -5.37,-5.89l5.37 5.89z"/>
  <path class="fil3" d="M5000.98 1295.85l-4.98 -6.16c-1.02,8.36 -3.07,6.67 4.98,6.16z"/>
  <path class="fil1" d="M5132.27 1425.67c0.47,-8 2.16,-5.89 -6.22,-5.07l6.22 5.07z"/>
  <path class="fil1" d="M5172.13 1465.3c0.28,-8.07 2.12,-6.14 -6.1,-5.14l6.1 5.14z"/>
  <path class="fil1" d="M4722.17 2424.26l-4.83 6.49c7.89,0.32 5.68,1.95 4.83,-6.49z"/>
  <path class="fil3" d="M5018.36 1312.37c0.06,-7.99 1.85,-6.03 -6.4,-4.61l6.4 4.61z"/>
  <path class="fil1" d="M4410.64 2175.1l-5.74 5.42c8.1,0.9 6.19,2.71 5.74,-5.42z"/>
  <polygon class="fil3" points="4524.82,936.72 4506.73,944.55 "/>
  <polygon class="fil1" points="4084.07,1908.36 4073.81,1903.4 "/>
  <polygon class="fil1" points="4364.04,1079.23 4374.09,1065.11 "/>
  <polygon class="fil3" points="4099.94,1914.79 4086.8,1907.83 "/>
  <polygon class="fil3" points="5338.85,1662.91 5329.02,1648.19 "/>
  <polygon class="fil1" points="4364.44,1185.89 4360.37,1173.2 "/>
  <polygon class="fil2" points="4364.89,2261.83 4371.75,2247.91 "/>
  <polygon class="fil3" points="3951.13,1672.07 3957.89,1658.65 "/>
  <polygon class="fil3" points="5342.11,1682.94 5336.07,1668.25 "/>
  <polygon class="fil1" points="4104.69,1521.8 4089.7,1530.91 "/>
  <polygon class="fil1" points="3959.33,1776.34 3950.34,1760.69 "/>
  <polygon class="fil3" points="5336.01,1768.53 5342.17,1754.09 "/>
  <polygon class="fil3" points="4364.38,2266.24 4360.52,2280.68 "/>
  <polygon class="fil3" points="4081.86,1527.39 4070.57,1535.03 "/>
  <polygon class="fil1" points="4624.31,952.06 4609.54,942.7 "/>
  <polygon class="fil1" points="4629.68,2493.99 4618.54,2498.74 "/>
  <polygon class="fil3" points="4519.6,2505.16 4505.61,2498.86 "/>
  <polygon class="fil1" points="4608.22,2500.31 4595.89,2504.29 "/>
  <polygon class="fil3" points="4499.1,944.63 4486.98,949.01 "/>
  <polygon class="fil1" points="4601.32,943.08 4585.04,937.78 "/>
  <path class="fil4" d="M2669.73 622.77c0.98,3.66 1.5,7.44 1.5,11.24l0 590.26c0.02,0 0.02,0 0.02,0 0,15.41 -8.25,29.66 -21.63,37.33l-495.41 285.23 -0.02 565.35c0,15.4 -8.18,29.59 -21.51,37.33l-1034.14 595.32c-2.36,1.34 -4.94,2.19 -7.52,3.11 -0.98,0.32 -1.89,0.92 -2.91,1.18 -3.58,0.91 -7.3,1.4 -11.02,1.4 -3.72,0 -7.44,-0.49 -11.02,-1.42 -1.18,-0.32 -2.26,-0.98 -3.4,-1.4 -2.36,-0.85 -4.84,-1.61 -7.09,-2.91l-1033.94 -595.26c-13.36,-7.72 -21.59,-21.96 -21.61,-37.37l-0.02 -1770.76c0,-3.88 0.53,-7.64 1.5,-11.3 0.32,-1.24 1.07,-2.36 1.5,-3.6 0.81,-2.26 1.57,-4.57 2.74,-6.67 0.81,-1.4 1.99,-2.52 2.97,-3.82 1.24,-1.73 2.36,-3.5 3.82,-5 1.24,-1.24 2.85,-2.16 4.25,-3.23 1.56,-1.3 2.97,-2.69 4.74,-3.72l0.04 0.02 516.98 -297.65c6.57,-3.76 14.01,-5.75 21.55,-5.75 7.55,0 14.99,1.99 21.51,5.75l516.98 297.65 0.1 0c1.73,1.08 3.17,2.42 4.74,3.66 1.41,1.07 2.97,2.05 4.19,3.23 1.5,1.57 2.58,3.33 3.88,5.06 0.92,1.3 2.16,2.42 2.91,3.82 1.24,2.16 1.93,4.41 2.81,6.67 0.43,1.24 1.18,2.36 1.5,3.66 0.98,3.64 1.5,7.42 1.5,11.22l0 1106.02 430.81 -248.06 0 -565.42c0,-3.76 0.53,-7.58 1.5,-11.18 0.39,-1.3 1.08,-2.42 1.5,-3.66 0.85,-2.26 1.6,-4.58 2.8,-6.67 0.81,-1.4 1.99,-2.52 2.91,-3.82 1.3,-1.73 2.36,-3.5 3.89,-5 1.24,-1.24 2.8,-2.16 4.19,-3.23 1.61,-1.3 3.01,-2.68 4.74,-3.72l0.02 0.02 517.04 -297.65c6.55,-3.78 13.99,-5.77 21.53,-5.77 7.54,0 14.99,1.99 21.51,5.75l516.98 297.65c1.83,1.08 3.23,2.42 4.84,3.66 1.34,1.08 2.91,2.05 4.15,3.23 1.5,1.57 2.58,3.34 3.89,5.06 0.98,1.3 2.16,2.42 2.91,3.82 1.24,2.09 1.93,4.41 2.81,6.67 0.49,1.24 1.18,2.36 1.5,3.66l-0.02 0zm-84.67 576.6l0 -490.85 -180.92 104.14 -249.95 143.91 0 490.85 430.91 -248.06 -0.04 0zm-517 887.91l0 -491.16 -245.84 140.42 -702.05 400.68 0 495.79 947.91 -545.71 -0.02 -0.02zm-1981.87 -1671.35l0 1671.37 947.79 545.65 0 -495.69 -495.14 -280.23 -0.16 -0.1 -0.22 -0.1c-1.67,-0.98 -3.07,-2.36 -4.63,-3.56 -1.34,-1.08 -2.91,-1.93 -4.09,-3.11l-0.1 -0.16c-1.4,-1.34 -2.36,-3.01 -3.56,-4.51 -1.08,-1.45 -2.36,-2.69 -3.23,-4.19l-0.06 -0.16c-0.98,-1.6 -1.56,-3.56 -2.26,-5.39 -0.69,-1.61 -1.61,-3.11 -2.05,-4.84l0 -0.06c-0.53,-2.05 -0.65,-4.19 -0.86,-6.3 -0.22,-1.6 -0.65,-3.23 -0.65,-4.84l0 -0.1 0 -1155.61 -249.85 -143.97 -180.92 -104.04 0 -0.04zm473.96 -322.48l-430.77 247.96 430.64 247.96 430.71 -248 -430.71 -247.9 0.13 -0.02zm224 1547.42l249.89 -143.85 0 -1081.09 -180.92 104.14 -249.95 143.91 0 1081.11 180.98 -104.21 0 -0.02zm1327.02 -1254.81l-430.71 247.96 430.71 247.96 430.65 -248 -430.65 -247.9 0 -0.02zm-43.11 570.52l-249.95 -143.91 -180.92 -104.14 0 490.85 249.89 143.85 180.98 104.21 0 -490.85zm-991.04 1106.12l631.74 -360.66 315.79 -180.23 -430.38 -247.8 -495.53 285.29 -451.63 259.99 430 243.38 0.02 0.02z"/>
  <g id="_105553225792704">
   <path class="fil5" d="M4363.94 1100.28l4.39 -32.14 10.02 -14.06 -2.42 -5.76c-0.6,-11.01 -3.78,-9.13 5.63,-9.13l9.88 -20.8c0.43,-9.6 -2.21,-7.47 6.9,-7.47l4.65 -9.53c0.13,-9.17 -2.17,-7.33 6.81,-5.63l5.89 -5.53c-0.92,-8.49 -3.09,-6.86 4.92,-6.32l5.26 -5.84c-1.48,-8.95 -3.22,-6.8 5.97,-5.72l6.62 -5.71 10.02 -4.44c0,-8.9 -2.05,-6.14 7.52,-6.97l34.82 -16.85 12.08 -4.36 7.6 -0.07 18.02 -7.81 60.01 1.05 16.22 5.29 8.2 -0.38 14.71 9.32 17.45 3.32c10.76,-0.35 8.85,-3.44 8.85,5.87l2.32 -0.24c10.97,-0.72 8.85,-3.71 8.85,6.2l15.01 9.65c9.17,1.1 7.03,-1.55 7.03,7.37l241.44 236.24 7.48 6.69 9.8 9.93 7.19 6.94 10.2 9.69 6.79 7.39 4.46 3.99c8.9,0.56 7.21,-1.95 6.37,6.41l6.13 6.56 4.78 3.59c9.14,0.32 7.26,-2.1 6.19,6.79l4.96 6.14c8.49,-0.49 6.74,-2.49 5.39,5.87l5.54 6c8.22,-1.41 6.44,-3.36 6.38,4.6 8.95,-0.98 7.44,-3.34 6.52,4.99 8.07,-0.7 5.82,-2.27 5.04,6.34 8.26,-0.36 6.28,-2.15 4.85,6.3l6.07 5.2c8.75,-1.52 6.87,-3.48 6.24,5.2 8.49,-0.53 6.57,-2.42 5.28,6.13l5.49 5.59c9.27,-1.76 7.16,-3.47 5.49,5.98l5.41 5.89c8.12,-0.85 6.01,-2.48 5.23,5.99l5.8 5.64c8.51,-1.03 6.81,-3.08 6.03,5.17 7.77,-0.21 5.74,-1.97 5.25,6.1l6.28 5.11c8.39,-0.91 6.51,-2.75 5.48,5.68l5.48 5.93c8.33,-0.72 6.67,-2.87 6.35,4.95 8.11,-0.79 6.07,-2.49 5.36,5.88l5.65 5.75c8.35,-0.82 6.67,-2.91 6.19,5.06 7.85,-0.38 5.81,-2.11 5.24,6.05 8.01,-0.29 6.17,-2.2 5.45,5.78 7.96,-0.17 6.1,-2.16 5.87,5.66 8.17,-1.04 6.23,-2.84 5.83,5.38 8.38,-0.54 6.65,-2.53 5.48,5.7l5.78 5.8c8.19,-1 6.35,-2.92 6.07,5.11 8.46,-0.59 6.73,-2.57 5.44,5.73l5.61 5.98c8.96,-1.3 6.5,-3.07 6.5,6.31l3.44 4.72c8.99,0 7.07,-2.36 6.58,6.29 8.76,-0.75 6.45,-2.68 6.45,6.31l4.17 4.25c9.38,0 6.98,-2.31 6.98,7.16l72.31 71.87c8.8,0 6.86,-2.31 6.57,6.17 8.12,-0.75 5.52,-2.35 6.35,6.48l15.7 25.99c9.52,0 6.5,-1.99 5.89,8.79l-0.06 2c9.85,0 6.44,-1.92 5.56,9.76l-1.17 4.41 9.8 14.67 -2.78 5.32 6.03 14.63 0.06 70.89 -6.14 14.38 -6.02 24.28c0.72,11.76 4.23,9.94 -5.39,9.94l-0.1 1.84c0.21,10.21 3.1,8.3 -5.92,8.3l-4.09 9.35c-1,9.9 1.98,7.99 -6.8,7.99l-4.92 8.72c-1.14,9.36 1.6,7.27 -7.31,7.27l-3.97 4.51c0,9.61 2.48,7.35 -6.87,7.35l-9.79 9.69c0,9.82 2.51,7.45 -7.16,7.45l-4.54 3.68c0,8.96 2.34,7.03 -6.33,6.49 0.7,8.71 2.63,6.41 -6.33,6.41l-3.55 4.59c0,9.78 2.42,7.3 -7.43,7.3l-10.49 9c0,9.49 2.42,7.22 -6.89,7.22l-332.11 338.06 -7 7.18 -9.52 10.19c-0.81,8.72 1.55,6.32 -7.31,6.97l-4.33 4.08c-0.78,8.55 1.68,6.83 -6.38,6.33 0.56,8.14 2.32,5.7 -6.2,6.55l-3.89 4.56c-0.55,8.69 1.79,6.77 -6.78,6.04 0.31,7.74 1.98,5.63 -6.19,5.08l-4.82 6.29c1.15,8.94 3.02,6.92 -6.01,5.68l-5.8 5.13c0.91,8.7 3.18,7.11 -4.95,6.51 0.74,8.3 2.45,6.17 -6.17,5.29 0.18,8.18 2.04,6.3 -6.25,4.85l-5.34 5.98c1.74,8.89 3.65,6.97 -5.24,6.17 0.53,8.7 2.54,6.92 -6.02,5.34l-5.61 5.55c1.72,9.03 3.26,6.79 -6.11,5.2l-5.95 5.46 -4.83 6.35c1.47,9.13 3.39,7.22 -5.74,5.74l-6.11 5.11c0.51,8.01 2.21,5.92 -6.14,5.13l-5.12 6.31c1.03,8.5 2.88,6.62 -5.64,5.52l-6.15 5.29c0.85,8.42 3.05,6.79 -4.81,6.47 0.64,8.15 2.38,6.15 -5.97,5.24l-5.69 5.78c1.06,8.42 3.06,6.67 -5.15,6.05l-5.58 5.65c1.21,8.82 3.27,7.03 -5.39,6.11 0.47,8.01 2.1,5.49 -6.69,5.85l-9.7 4.49c0,8.79 1.98,5.99 -7.62,6.78l-8.99 4.59c0,9.11 1.75,5.76 -9.43,5.37l-1.77 0.09c0,9.64 1.88,6.26 -9.64,5.57l-5.73 1.44 -11.09 4.73 -10.29 1.57 -12.29 3.96 -9.34 -0.57c-17.8,11.1 -34.82,9.75 -52.41,0.85l-14.26 0.59 -13.93 -6.27 -54.28 -21.87c-9.57,0.18 -8.01,2.76 -6.46,-6.12 -8.79,-0.08 -6.91,2.31 -6.91,-5.88l-15.03 -10.37c-9.03,-0.4 -6.77,2.02 -7.31,-6.71l-15.01 -21.93c-8.81,0 -6.1,2.06 -7.11,-7.25l-4.08 -9.89 -5.8 -9.27 -0.01 -1.97 -5.82 -8.9 -0.68 0.11c-9.89,0 -6.22,1.84 -5.27,-10.38 -7.49,-41.36 -9.35,-51.68 -10.8,-96.96l3.85 -14.39 0.5 -4.39 6.84 -13.88 -0.64 -8.16 5.17 -10.12 5.87 -12.54 5.9 -9.26 -0.08 -1.99c0.71,-10.12 -2.3,-8.21 6.57,-8.21l4.3 -10.14c-0,-9.3 -2.59,-7.7 5.93,-6.73l5.72 -5.4c-0.45,-8.78 -2.46,-6.46 6.54,-6.46l4.22 -3.86c0,-8.86 -2.24,-6.84 6.51,-6.28 -0.31,-8.65 -2.36,-6.43 6.41,-6.43l4.11 -4.18c0,-9.33 -2.23,-6.8 7.44,-6.8l9.66 -10.21c0,-9.46 -2.38,-7.11 7.06,-7.11l198.39 -200.69c-101.59,-13.01 -481.94,15.07 -535.54,-7.41l-24.36 0.07 -13.1 -6.93 -2.72 0.53 -10.22 -4.94 -25.04 -10.77c-10.22,-0.9 -8.42,2.22 -8.42,-6.44l-1.39 -0.39c-9.86,-0.89 -7.93,2.04 -7.93,-6.77 -21.11,-12.13 -32.62,-22.33 -44.07,-44.15 -8.89,0 -5.93,1.96 -6.97,-7.92l-10.77 -19.28c-9.23,0 -6.16,1.88 -5.64,-8.82l-3.85 -22.06 -8.95 -15.6 1.47 -10.38c-11.16,-18.96 -11.06,-44.49 -0.07,-63.47l-0.61 -14.44 6.73 -13.38 20.51 -50.48c-0.09,-10.1 -2.65,-7.67 7.28,-7.67 17.94,-23.23 20.51,-24.56 42.87,-42.83 0,-9.86 -2.45,-7.36 7.47,-7.36l34.15 -14.83 11.25 -7.61 7.81 3.51 14.94 -9.07 15 1.3c35.69,-18.01 202.29,-6.29 256.18,-6.29 86.71,0 173.43,0 260.28,0.63l13.34 -4.65 -137.2 -136.42 -6.98 -7.24 -3.98 -4.34 -6.51 -6.32c-8.11,0.49 -5.66,2.26 -6.5,-6.26l-4.69 -3.87c-8.77,-0.59 -6.94,1.8 -6,-6.74l-6.23 -6.5 -5.09 -3.26c-8.9,-0.46 -6.48,1.84 -6.93,-7.21l-3.77 -4.61 -6.7 -6.07c-8.32,0.82 -5.86,2.55 -6.45,-6.23l-4.58 -4.17c-8.98,-0.39 -7.27,2.08 -6.23,-6.43 -7.85,0.48 -5.66,2.08 -4.96,-6.31 -8.38,0.41 -6.59,2.36 -5.27,-5.95l-5.75 -5.56c-8.57,1.5 -6.47,3.19 -5.75,-5.64l-6.7 -5.93 -9.34 -16.16c-8.97,0 -6.05,1.98 -6.82,-7.99l-23.58 -56.45 -4.05 -12.64 -0.63 -11.73c-9.46,-19.11 -9.24,-30.69 -0.11,-49.76zm-282.54 -851.45c0,125.36 73.19,177.81 145.62,250.24 21.52,21.52 181.3,171.31 188.04,196.52 -33.36,2.77 -128.13,41.15 -160,54.9 -129.45,55.82 -281.71,173.73 -365.21,279.49l-90.16 124.74c-81.67,126.87 -148.08,330.87 -148.08,496.61 0,240.04 30.6,355.38 137.59,558.01 89.2,168.96 276.59,329.18 450.47,414.77 263.22,129.56 603.34,126.97 869.13,3.72 156.75,-72.69 301.97,-191.23 403.42,-331.76 102.92,-142.56 192.23,-358.21 192.23,-554.26l0 -101.79c0,-212.95 -102.52,-433.36 -195.5,-556.64 -14.64,-19.41 -23.8,-32.69 -38.66,-51.82l-92.17 -94.46c-108.37,-90.73 -528.23,-522.07 -616.67,-610.51 -63.59,-63.59 -123.03,-123.03 -186.62,-186.62 -77.79,-77.79 -117.74,-139.97 -255.9,-139.97 -31.78,0 -70.85,13.37 -94.4,24.37 -34.29,16.02 -45.8,28.79 -71.77,52.64l-14.02 14.27c-5.95,6.99 -7.29,9.06 -12.2,16.07 -26.6,37.97 -45.14,89.41 -45.14,141.49z"/>
   <path class="fil6" d="M4510.51 933.96l-7.6 0.07 -12.08 4.36 -34.82 16.85c0,9.08 2.11,6.37 -7.52,6.97l-10.02 4.44c0,8.77 2.15,6.8 -6.62,5.71l-5.97 5.72c1.45,8.31 3.18,6.34 -5.26,5.84l-4.92 6.32c0.97,9.02 2.98,7.23 -5.89,5.53l-6.81 5.63 -4.65 9.53c-0.84,9.47 1.91,7.47 -6.9,7.47l-9.88 20.8 -5.63 9.13 2.42 5.76 -10.02 14.06 -4.39 32.14 0.11 49.76 0.63 11.73 4.05 12.64 23.58 56.45c9.35,0 6.54,-2.13 6.82,7.99l9.34 16.16c9.14,0 7.48,-2.52 6.7,5.93l5.75 5.64c8.95,-1.47 7.08,-3.37 5.75,5.56 7.79,0.14 6.02,-1.83 5.27,5.95 8.03,-0.43 5.91,-2.11 4.96,6.31 8.53,-0.46 6.23,-2.37 6.23,6.43l4.58 4.17c8.83,0 6.92,-2.31 6.45,6.23 8.9,-0.79 6.7,-2.84 6.7,6.07l3.77 4.61c9.35,0 6.93,-2.29 6.93,7.21l5.09 3.26c9.07,0 7.17,-2.33 6.23,6.5 8.37,-0.23 6,-2.11 6,6.74l4.69 3.87c8.87,0 6.93,-2.31 6.5,6.26 8.75,-0.48 6.51,-2.52 6.51,6.32l3.98 4.34c9.41,0 6.98,-2.31 6.98,7.24l137.2 136.42 8.36 6.5 -538.17 3.82 -15 -1.3 -14.94 9.07 -7.81 -3.51 -11.25 7.61 -34.15 14.83c0,8.74 1.98,5.84 -7.47,7.36 -22.36,18.27 -24.93,19.6 -42.87,42.83 -1.31,9.67 1.61,7.67 -7.28,7.67l-20.51 50.48 -6.73 13.38 0.61 14.44 0.07 63.47 -1.47 10.38 8.95 15.6 3.85 22.06 5.64 8.82 10.77 19.28c9.5,0 6.74,-2.2 6.97,7.92 11.45,21.82 22.95,32.02 44.07,44.15 10.04,0.28 7.93,-2.51 7.93,6.77l1.39 0.39c10.58,-0.41 8.42,-3.27 8.42,6.44l25.04 10.77 10.22 4.94 2.72 -0.53 13.1 6.93 24.36 -0.07c131.6,-5.04 327.57,-0.1 472.12,-0.34 26.33,-0.04 50.14,-4.84 63.42,7.75l-198.39 200.69c-0.47,8.96 1.89,6.6 -7.06,7.11l-9.66 10.21c-0.57,8.84 1.72,6.38 -7.44,6.8l-4.11 4.18c-0.47,8.82 1.98,7.02 -6.41,6.43l-6.51 6.28 -4.22 3.86 -6.54 6.46c0.44,8.11 2.34,6.3 -5.72,5.4 -0.02,8.65 2.29,6.73 -5.93,6.73l-4.3 10.14c-0.18,10.27 2.71,8.21 -6.57,8.21l0.08 1.99c0.81,11.29 3.98,9.26 -5.9,9.26l-5.87 12.54c0.43,11.81 4.05,10.12 -5.17,10.12l0.64 8.16 -6.84 13.88 -0.5 4.39 -3.85 14.39c1.44,45.28 3.31,55.6 10.8,96.96l5.27 10.38 0.68 -0.11c9.33,0 6.22,-1.91 5.82,8.9l0.01 1.97c9.34,0 6.06,-1.86 5.8,9.27l4.08 9.89c9.33,0 6.83,-2.27 7.11,7.25l15.01 21.93c9.51,0 7.31,-2.48 7.31,6.71l15.03 10.37c9.91,-0.25 8.52,-3.05 6.91,5.88 8.46,0.08 6.46,-2.12 6.46,6.12l54.28 21.87 13.93 6.27 14.26 -0.59 52.41 -0.85 9.34 0.57 12.29 -3.96 10.29 -1.57 11.09 -4.73 5.73 -1.44 9.64 -5.57 1.77 -0.09 9.43 -5.37 8.99 -4.59c0,-8.97 -2.05,-6.23 7.62,-6.78l9.7 -4.49c0,-8.78 -2.14,-6.73 6.69,-5.85l5.39 -6.11c-1.27,-8.29 -2.95,-6.24 5.58,-5.65l5.15 -6.05c-1.09,-8.65 -2.98,-6.72 5.69,-5.78l5.97 -5.24 4.81 -6.47c-0.94,-8.49 -2.64,-6.36 6.15,-5.29l5.64 -5.52c-0.98,-8.78 -3.2,-7.18 5.12,-6.31 -0.37,-7.79 -2.05,-5.68 6.14,-5.13 -0.5,-8.43 -2.37,-6.55 6.11,-5.11l5.74 -5.74c-1.42,-8.47 -3.41,-6.69 4.83,-6.35 -0.72,-8.88 -2.76,-7.12 5.95,-5.46l6.11 -5.2c-1.64,-9.02 -3.46,-7.12 5.61,-5.55 0.29,-7.86 -1.76,-6.12 6.02,-5.34l5.24 -6.17c-1.72,-9.25 -3.78,-7.52 5.34,-5.98l6.25 -4.85c-0.18,-7.87 -1.98,-5.83 6.17,-5.29 -0.67,-8.27 -2.8,-6.53 4.95,-6.51 -1,-8.31 -2.69,-6.35 5.8,-5.13 -0.1,-7.87 -1.99,-5.87 6.01,-5.68 -1.08,-8.51 -3.23,-6.91 4.82,-6.29 -0.46,-7.89 -2.12,-5.77 6.19,-5.08 -0.31,-8.44 -2.17,-6.04 6.78,-6.04l3.89 -4.56c0,-8.93 -2.36,-7.05 6.2,-6.55 -0.55,-8.62 -2.48,-6.33 6.38,-6.33l4.33 -4.08c0,-9.42 -2.3,-6.97 7.31,-6.97l9.52 -10.19c0,-9.5 -2.41,-7.18 7,-7.18l332.11 -338.06c0.43,-9.02 -1.96,-6.72 6.89,-7.22l10.49 -9 7.43 -7.3 3.55 -4.59c0.71,-8.67 -1.78,-6.96 6.33,-6.41 -0.71,-8.29 -2.45,-5.81 6.33,-6.49l4.54 -3.68 7.16 -7.45 9.79 -9.69 6.87 -7.35 3.97 -4.51c0.73,-9.49 -1.9,-7.27 7.31,-7.27l4.92 -8.72c-0.21,-10.24 -2.9,-7.99 6.8,-7.99l4.09 -9.35 5.92 -8.3 0.1 -1.84 5.39 -9.94 6.02 -24.28 6.14 -14.38 -0.06 -70.89 -6.03 -14.63 2.78 -5.32 -9.8 -14.67 1.17 -4.41 -5.56 -9.76 0.06 -2 -5.89 -8.79 -15.7 -25.99c-8.72,0 -6.64,2.2 -6.35,-6.48 -8.33,0.73 -5.9,2.51 -6.57,-6.17l-72.31 -71.87 -6.98 -7.16 -4.17 -4.25c-8.72,-0.57 -6.96,1.89 -6.45,-6.31 -8.53,0.76 -6.1,2.59 -6.58,-6.29l-3.44 -4.72 -6.5 -6.31c-8.91,1.28 -6.86,3.08 -5.61,-5.98l-5.44 -5.73 -6.07 -5.11c-8.84,1.01 -6.95,2.98 -5.78,-5.8 -7.72,0.17 -5.87,2.05 -5.48,-5.7 -7.91,0.54 -6.06,2.43 -5.83,-5.38 -8.55,1.05 -6.59,2.93 -5.87,-5.66 -7.87,0.18 -6.03,2.09 -5.45,-5.78 -7.73,0.3 -5.68,2.02 -5.24,-6.05l-6.19 -5.06c-8.35,0.86 -6.38,2.69 -5.65,-5.75l-5.36 -5.88c-8.33,0.73 -6.67,2.88 -6.35,-4.95 -8.47,0.78 -6.51,2.63 -5.48,-5.93l-5.48 -5.68c-8.5,0.87 -6.81,3.01 -6.28,-5.11 -8.03,0.46 -5.99,2.22 -5.25,-6.1l-6.03 -5.17c-8.54,1.06 -6.6,2.93 -5.8,-5.64l-5.23 -5.99c-8.87,0.81 -7.12,2.82 -5.41,-5.89l-5.49 -5.98c-8.79,1.75 -6.77,3.41 -5.49,-5.59l-5.28 -6.13 -6.24 -5.2c-9.19,1.5 -7.62,3.69 -6.07,-5.2l-4.85 -6.3c-7.97,0.36 -5.84,2.06 -5.04,-6.34 -8.31,0.63 -6.58,2.79 -6.52,-4.99l-6.38 -4.6c-8.99,1.5 -6.85,3.22 -5.54,-6l-5.39 -5.87c-8.01,0.51 -5.97,2.2 -4.96,-6.14 -8.49,0.01 -6.19,2.03 -6.19,-6.79l-4.78 -3.59c-8.91,0 -6.92,2.24 -6.13,-6.56 -8.6,0.31 -6.37,2.34 -6.37,-6.41l-4.46 -3.99c-9.29,0 -6.79,2.22 -6.79,-7.39l-10.2 -9.69c-9.5,0 -7.19,2.42 -7.19,-6.94l-9.8 -9.93c-9.66,0 -7.48,2.54 -7.48,-6.69l-241.44 -236.24c-9.23,-0.88 -7.03,1.7 -7.03,-7.37l-15.01 -9.65 -8.85 -6.2 -2.32 0.24 -8.85 -5.87 -17.45 -3.32 -14.71 -9.32 -8.2 0.38 -16.22 -5.29 -60.01 -1.05 -18.02 7.81z"/>
   <path class="fil1" d="M4665.1 1907.98c-13.28,-12.59 -37.09,-7.79 -63.42,-7.75 -144.55,0.24 -340.52,-4.7 -472.12,0.34 53.6,22.47 433.95,-5.6 535.54,7.41z"/>
   <path class="fil2" d="M4124.95 1510.4l538.17 -3.82 -8.36 -6.5 -13.34 4.65c-86.85,-0.63 -173.57,-0.63 -260.28,-0.63 -53.89,0 -220.49,-11.72 -256.18,6.29z"/>
   <path class="fil1" d="M3957.62 1736.73l-0.07 -63.47c-10.99,18.98 -11.09,44.51 0.07,63.47z"/>
   <path class="fil3" d="M4589.99 2487.42l-52.41 0.85c17.59,8.9 34.61,10.25 52.41,-0.85z"/>
   <path class="fil3" d="M4364.05 1150.04l-0.11 -49.76c-9.13,19.06 -9.34,30.65 0.11,49.76z"/>
   <path class="fil2" d="M4054.13 1878.54c0,-9.71 2.15,-6.85 -8.42,-6.44 0,8.66 -1.8,5.54 8.42,6.44z"/>
   <path class="fil3" d="M3991.46 1587.29c-9.92,0 -7.37,-2.43 -7.28,7.67 8.89,0 5.96,2.01 7.28,-7.67z"/>
   <path class="fil2" d="M5315.23 1808.63c-9.7,0 -7,-2.26 -6.8,7.99 8.77,0 5.8,1.91 6.8,-7.99z"/>
   <path class="fil1" d="M4398.82 2182.28c-8.87,0 -5.86,-1.91 -6.57,8.21 9.28,0 6.39,2.05 6.57,-8.21z"/>
   <path class="fil1" d="M4399.13 1238.85c-0.28,-10.12 2.53,-7.99 -6.82,-7.99 0.77,9.98 -2.16,7.99 6.82,7.99z"/>
   <path class="fil1" d="M3992.32 1820.79c-0.23,-10.12 2.54,-7.92 -6.97,-7.92 1.03,9.89 -1.92,7.92 6.97,7.92z"/>
   <path class="fil3" d="M4041.79 1537.11c-9.91,-0 -7.47,-2.5 -7.47,7.36 9.45,-1.52 7.47,1.38 7.47,-7.36z"/>
   <path class="fil1" d="M4044.32 1871.71c0,-9.28 2.11,-6.48 -7.93,-6.77 0,8.81 -1.93,5.88 7.93,6.77z"/>
   <path class="fil1" d="M4456.01 955.25c-9.57,0.82 -7.52,-1.94 -7.52,6.97 9.63,-0.59 7.52,2.12 7.52,-6.97z"/>
   <path class="fil2" d="M4449.99 2125.99c-9.67,0 -7.44,-2.53 -7.44,6.8 9.17,-0.43 6.87,2.04 7.44,-6.8z"/>
   <path class="fil1" d="M5303.52 1825.35c-9.21,0 -6.58,-2.22 -7.31,7.27 8.92,0 6.17,2.09 7.31,-7.27z"/>
   <path class="fil1" d="M4404.39 2409.7c-0.28,-9.52 2.22,-7.25 -7.11,-7.25 1.01,9.3 -1.69,7.25 7.11,7.25z"/>
   <path class="fil1" d="M4676.18 2453.9c-9.68,0.55 -7.62,-2.19 -7.62,6.78 9.61,-0.78 7.62,2.01 7.62,-6.78z"/>
   <path class="fil1" d="M4398.34 1010.93c-9.1,0 -6.46,-2.13 -6.9,7.47 8.8,0 6.06,2.01 6.9,-7.47z"/>
   <path class="fil2" d="M4466.71 2108.67c-9.44,0 -7.06,-2.35 -7.06,7.11 8.95,-0.51 6.59,1.85 7.06,-7.11z"/>
   <path class="fil3" d="M4471.57 1319.12c0,-9.5 2.42,-7.21 -6.93,-7.21 0.45,9.06 -1.96,6.76 6.93,7.21z"/>
   <path class="fil2" d="M5229.76 1899.09c-8.86,0.5 -6.46,-1.8 -6.89,7.22 9.31,0 6.89,2.27 6.89,-7.22z"/>
   <path class="fil3" d="M4874.24 2261.73c-9.6,0 -7.31,-2.46 -7.31,6.97 8.86,-0.64 6.5,1.76 7.31,-6.97z"/>
   <path class="fil3" d="M4426.71 2438.35c0,-9.19 2.2,-6.71 -7.31,-6.71 0.54,8.74 -1.72,6.31 7.31,6.71z"/>
   <path class="fil1" d="M4687.16 973.61c0,-8.92 2.14,-6.27 -7.03,-7.37 0,9.07 -2.2,6.49 7.03,7.37z"/>
   <path class="fil2" d="M4448.65 2454.59c1.6,-8.93 3,-6.13 -6.91,-5.88 0,8.19 -1.88,5.8 6.91,5.88z"/>
   <path class="fil3" d="M4997.99 1277.83c1.07,-8.89 2.95,-6.47 -6.19,-6.79 0,8.82 -2.3,6.8 6.19,6.79z"/>
   <path class="fil3" d="M4455.12 2460.71c0,-8.24 2,-6.04 -6.46,-6.12 -1.55,8.89 -3.11,6.3 6.46,6.12z"/>
   <path class="fil2" d="M5201.04 1481.83c0.5,-8.65 2.42,-6.29 -6.58,-6.29 0.47,8.88 -1.96,7.05 6.58,6.29z"/>
   <path class="fil3" d="M4443.14 1290.84c0,-8.81 2.29,-6.89 -6.23,-6.43 -1.03,8.51 -2.74,6.05 6.23,6.43z"/>
   <path class="fil2" d="M5263.88 1865.3c-8.78,0.68 -7.04,-1.8 -6.33,6.49 8.67,0.54 6.33,2.47 6.33,-6.49z"/>
   <path class="fil2" d="M5207.49 1488.14c0,-9 2.31,-7.06 -6.45,-6.31 -0.51,8.21 -2.27,5.74 6.45,6.31z"/>
   <path class="fil3" d="M4846.13 2290.22c-8.95,0 -7.09,-2.4 -6.78,6.04 8.57,0.74 6.23,2.66 6.78,-6.04z"/>
   <path class="fil2" d="M4438.44 2136.97c-8.77,0 -6.72,-2.22 -6.41,6.43 8.38,0.59 5.94,2.39 6.41,-6.43z"/>
   <path class="fil3" d="M4980.9 1260.89c0.84,-8.36 2.54,-5.85 -6.37,-6.41 0,8.74 -2.23,6.72 6.37,6.41z"/>
   <path class="fil3" d="M4409.05 2165.4c-8.53,-0.97 -5.94,-2.56 -5.93,6.73 8.22,0 5.91,1.92 5.93,-6.73z"/>
   <path class="fil3" d="M4488.89 1335.63c0,-8.85 2.37,-6.97 -6,-6.74 -0.93,8.54 -2.77,6.16 6,6.74z"/>
   <path class="fil3" d="M4454.17 1301.24c0.47,-8.54 2.38,-6.23 -6.45,-6.23 0.59,8.77 -1.87,7.05 6.45,6.23z"/>
   <path class="fil2" d="M5257.55 1871.79c-8.11,-0.56 -5.61,-2.26 -6.33,6.41 8.95,0 7.03,2.31 6.33,-6.41z"/>
   <path class="fil3" d="M4692.57 2443.56c-8.83,-0.88 -6.69,-2.93 -6.69,5.85 8.8,-0.36 7.16,2.16 6.69,-5.85z"/>
   <path class="fil1" d="M5303.87 1584.07c-0.84,-8.83 1.76,-7.23 -6.35,-6.48 -0.28,8.67 -2.37,6.48 6.35,6.48z"/>
   <path class="fil2" d="M5297.51 1577.59c0.29,-8.47 2.23,-6.17 -6.57,-6.17 0.67,8.67 -1.76,6.9 6.57,6.17z"/>
   <path class="fil3" d="M4856.22 2279.11c-8.55,-0.5 -6.2,-2.38 -6.2,6.55 8.51,-0.86 6.75,1.59 6.2,-6.55z"/>
   <path class="fil3" d="M4862.61 2272.78c-8.87,0 -6.93,-2.29 -6.38,6.33 8.07,0.5 5.6,2.23 6.38,-6.33z"/>
   <path class="fil3" d="M4500.08 1345.77c0.43,-8.57 2.37,-6.26 -6.5,-6.26 0.84,8.52 -1.6,6.76 6.5,6.26z"/>
   <path class="fil3" d="M4828.34 2307.62c-8,-0.18 -6.1,-2.19 -6.01,5.68 9.03,1.24 7.15,3.26 6.01,-5.68z"/>
   <path class="fil3" d="M5026.79 1305.42c0.92,-8.33 2.43,-5.97 -6.52,-4.99 -0.06,7.78 -1.79,5.62 6.52,4.99z"/>
   <path class="fil3" d="M4788.59 2347.25c-7.77,-0.78 -5.73,-2.52 -6.02,5.34 8.56,1.59 6.55,3.36 6.02,-5.34z"/>
   <path class="fil3" d="M4811.59 2324.95c-8.16,-0.54 -6.35,-2.58 -6.17,5.29 8.62,0.88 6.91,3 6.17,-5.29z"/>
   <path class="fil2" d="M5150.32 1430.81c0.24,-7.82 2.09,-5.83 -5.87,-5.66 -0.72,8.59 -2.68,6.71 5.87,5.66z"/>
   <path class="fil3" d="M5031.82 1311.76c0.78,-8.61 3.03,-7.04 -5.04,-6.34 -0.81,8.4 -2.93,6.7 5.04,6.34z"/>
   <path class="fil3" d="M4816.54 2318.44c-7.75,-0.02 -5.62,-1.76 -4.95,6.51 8.13,0.59 5.86,2.19 4.95,-6.51z"/>
   <path class="fil3" d="M4436.91 1284.41c0.95,-8.43 3.07,-6.74 -4.96,-6.31 -0.7,8.39 -2.89,6.79 4.96,6.31z"/>
   <path class="fil3" d="M4431.95 1278.1c0.75,-7.77 2.52,-5.8 -5.27,-5.95 -1.32,8.31 -3.11,6.35 5.27,5.95z"/>
   <path class="fil1" d="M4748.22 2386c-8.2,-0.55 -6.51,-2.65 -6.14,5.13 8.35,0.79 6.65,2.87 6.14,-5.13z"/>
   <path class="fil1" d="M5116.55 1396.63c0.32,-7.83 1.98,-5.67 -6.35,-4.95 -0.32,7.83 -1.98,5.68 6.35,4.95z"/>
   <path class="fil1" d="M5092.95 1374.95c0.49,-8.07 2.52,-6.31 -5.25,-6.1 -0.74,8.32 -2.78,6.56 5.25,6.1z"/>
   <path class="fil1" d="M5156.15 1436.19c0.4,-8.22 2.34,-6.42 -5.83,-5.38 -0.24,7.81 -2.08,5.92 5.83,5.38z"/>
   <path class="fil1" d="M5161.62 1441.89c1.17,-8.23 2.91,-6.24 -5.48,-5.7 -0.4,7.75 -2.25,5.87 5.48,5.7z"/>
   <path class="fil3" d="M4839.35 2296.26c-8.3,-0.69 -6.64,-2.81 -6.19,5.08 8.17,0.56 6.49,2.66 6.19,-5.08z"/>
   <path class="fil1" d="M5139 1419.37c0.56,-8.16 2.61,-6.43 -5.24,-6.05 -0.43,8.08 -2.49,6.35 5.24,6.05z"/>
   <path class="fil1" d="M5144.45 1425.15c0.72,-7.98 2.55,-6.07 -5.45,-5.78 -0.57,7.87 -2.41,5.96 5.45,5.78z"/>
   <path class="fil3" d="M4380.9 2372.54l-5.27 -10.38c-0.96,12.22 -4.63,10.38 5.27,10.38z"/>
   <path class="fil3" d="M5330.95 1630.61c0.88,-11.68 4.29,-9.76 -5.56,-9.76l5.56 9.76z"/>
   <path class="fil2" d="M4392.33 2192.48l-5.9 9.26c9.88,0 6.71,2.03 5.9,-9.26z"/>
   <path class="fil3" d="M5330.74 1779.2l-5.39 9.94c9.63,0 6.11,1.83 5.39,-9.94z"/>
   <path class="fil3" d="M4648.37 2470.73l-9.64 5.57c11.52,0.69 9.64,4.07 9.64,-5.57z"/>
   <path class="fil3" d="M4665.12 956.6c0,-9.91 2.13,-6.92 -8.85,-6.2l8.85 6.2z"/>
   <path class="fil1" d="M4380.56 2214.27l-5.17 10.12c9.22,0 5.6,1.7 5.17,-10.12z"/>
   <path class="fil1" d="M4393.2 2392.56c0.26,-11.13 3.54,-9.27 -5.8,-9.27l5.8 9.27z"/>
   <path class="fil3" d="M4381.57 1039.19c-9.41,0 -6.23,-1.89 -5.63,9.13l5.63 -9.13z"/>
   <path class="fil3" d="M5325.46 1618.85c0.61,-10.79 3.63,-8.79 -5.89,-8.79l5.89 8.79z"/>
   <path class="fil1" d="M4387.39 2381.33c0.4,-10.81 3.51,-8.9 -5.82,-8.9l5.82 8.9z"/>
   <path class="fil3" d="M4659.57 2465.27l-9.43 5.37c11.18,0.39 9.43,3.74 9.43,-5.37z"/>
   <path class="fil3" d="M4653.95 950.63c0,-9.31 1.92,-6.21 -8.85,-5.87l8.85 5.87z"/>
   <path class="fil3" d="M3974.59 1793.59l-5.64 -8.82c-0.52,10.7 -3.59,8.82 5.64,8.82z"/>
   <path class="fil1" d="M5247.68 1882.79l-7.43 7.3c9.85,0 7.43,2.48 7.43,-7.3z"/>
   <path class="fil1" d="M5275.57 1854.17l-7.16 7.45c9.66,0 7.16,2.37 7.16,-7.45z"/>
   <path class="fil3" d="M5325.24 1790.98l-5.92 8.3c9.02,0 6.13,1.91 5.92,-8.3z"/>
   <path class="fil2" d="M5292.24 1837.12l-6.87 7.35c9.35,0 6.87,2.26 6.87,-7.35z"/>
   <path class="fil3" d="M4517.55 1363.66c0,-9.55 2.43,-7.24 -6.98,-7.24l6.98 7.24z"/>
   <path class="fil3" d="M4890.77 2244.36c-9.41,0 -7,-2.32 -7,7.18l7 -7.18z"/>
   <path class="fil3" d="M4970.07 1250.49l-6.79 -7.39c0,9.61 -2.51,7.39 6.79,7.39z"/>
   <path class="fil3" d="M4936.08 1216.54l-7.48 -6.69c0,9.24 -2.18,6.69 7.48,6.69z"/>
   <path class="fil3" d="M4953.08 1233.41l-7.19 -6.94c0,9.36 -2.3,6.94 7.19,6.94z"/>
   <path class="fil2" d="M5218.64 1499.56c0,-9.48 2.4,-7.16 -6.98,-7.16l6.98 7.16z"/>
   <path class="fil3" d="M5065.24 1346.16c1.66,-9.45 3.78,-7.74 -5.49,-5.98l5.49 5.98z"/>
   <path class="fil1" d="M5191.02 1470.82c0,-9.38 2.46,-7.61 -6.5,-6.31l6.5 6.31z"/>
   <path class="fil3" d="M4409.81 995.77c-8.98,-1.7 -6.68,-3.54 -6.81,5.63l6.81 -5.63z"/>
   <path class="fil3" d="M4776.96 2358.13l-6.11 5.2c9.37,1.59 7.83,3.83 6.11,-5.2z"/>
   <path class="fil1" d="M4799.17 2335.09c-9.11,-1.53 -7.05,-3.26 -5.34,5.98l5.34 -5.98z"/>
   <path class="fil3" d="M4760.07 2375.15l-5.74 5.74c9.13,1.47 7.21,3.39 5.74,-5.74z"/>
   <path class="fil1" d="M5013.88 1295.83l-5.54 -6c-1.31,9.22 -3.44,7.51 5.54,6z"/>
   <path class="fil3" d="M4431.85 972.36c-9.2,-1.08 -7.45,-3.23 -5.97,5.72l5.97 -5.72z"/>
   <path class="fil3" d="M4482.89 1328.89c0.94,-8.83 2.84,-6.5 -6.23,-6.5l6.23 6.5z"/>
   <path class="fil3" d="M4460.87 1307.3c0,-8.91 2.2,-6.86 -6.7,-6.07l6.7 6.07z"/>
   <path class="fil1" d="M4782.57 2352.59c-9.07,-1.57 -7.25,-3.47 -5.61,5.55l5.61 -5.55z"/>
   <path class="fil1" d="M5042.74 1323.26l-6.07 -5.2c-1.55,8.89 -3.12,6.69 6.07,5.2z"/>
   <path class="fil2" d="M5184.52 1464.51l-5.61 -5.98c-1.25,9.06 -3.3,7.26 5.61,5.98z"/>
   <path class="fil1" d="M4421.31 2153.54c-9,0 -6.99,-2.31 -6.54,6.46l6.54 -6.46z"/>
   <path class="fil3" d="M4987.02 1267.45l-6.13 -6.56c-0.8,8.81 -2.78,6.56 6.13,6.56z"/>
   <path class="fil1" d="M4415.7 990.24l-5.89 5.53c8.88,1.7 6.86,3.49 5.89,-5.53z"/>
   <path class="fil1" d="M4426.67 1272.15c1.33,-8.94 3.2,-7.04 -5.75,-5.56l5.75 5.56z"/>
   <path class="fil3" d="M4793.83 2341.08l-5.24 6.17c8.9,0.79 6.98,2.71 5.24,-6.17z"/>
   <path class="fil2" d="M4432.03 2143.41c-8.75,-0.57 -6.51,-2.58 -6.51,6.28l6.51 -6.28z"/>
   <path class="fil3" d="M4506.59 1352.08c0,-8.84 2.24,-6.8 -6.51,-6.32l6.51 6.32z"/>
   <path class="fil3" d="M4438.48 966.65l-6.62 5.71c8.77,1.09 6.62,3.06 6.62,-5.71z"/>
   <path class="fil1" d="M5059.75 1340.18l-5.49 -5.59c-1.28,9 -3.31,7.34 5.49,5.59z"/>
   <path class="fil3" d="M4415.17 1260.94c0.78,-8.45 2.44,-5.93 -6.7,-5.93l6.7 5.93z"/>
   <path class="fil2" d="M5167.41 1447.68l-5.78 -5.8c-1.17,8.78 -3.05,6.81 5.78,5.8z"/>
   <path class="fil1" d="M4770.85 2363.34c-8.71,-1.66 -6.68,-3.42 -5.95,5.46l5.95 -5.46z"/>
   <path class="fil1" d="M5070.65 1352.05l-5.41 -5.89c-1.71,8.71 -3.46,6.7 5.41,5.89z"/>
   <path class="fil3" d="M4697.96 2437.45l-5.39 6.11c8.65,0.92 6.6,2.71 5.39,-6.11z"/>
   <path class="fil3" d="M5048.98 1328.46c0.63,-8.68 2.51,-6.72 -6.24,-5.2l6.24 5.2z"/>
   <path class="fil3" d="M4420.92 1266.59l-5.75 -5.64c-0.72,8.83 -2.82,7.15 5.75,5.64z"/>
   <path class="fil1" d="M4714.38 2419.96c-8.67,-0.93 -6.77,-2.86 -5.69,5.78l5.69 -5.78z"/>
   <path class="fil1" d="M4731.31 2402.96c-8.79,-1.07 -7.09,-3.2 -6.15,5.29l6.15 -5.29z"/>
   <path class="fil1" d="M5081.67 1363.69l-5.8 -5.64c-0.81,8.57 -2.75,6.7 5.8,5.64z"/>
   <path class="fil3" d="M5054.26 1334.6c1.29,-8.56 3.22,-6.67 -5.28,-6.13l5.28 6.13z"/>
   <path class="fil1" d="M4742.07 2391.14c-8.32,-0.87 -6.1,-2.47 -5.12,6.31l5.12 -6.31z"/>
   <path class="fil1" d="M5110.2 1391.68l-5.48 -5.93c-1.03,8.56 -2.99,6.71 5.48,5.93z"/>
   <path class="fil1" d="M4736.95 2397.44l-5.64 5.52c8.51,1.1 6.67,2.98 5.64,-5.52z"/>
   <path class="fil1" d="M4754.32 2380.9c-8.48,-1.45 -6.6,-3.33 -6.11,5.11l6.11 -5.11z"/>
   <path class="fil3" d="M5008.34 1289.83c1.35,-8.35 3.09,-6.35 -5.39,-5.87l5.39 5.87z"/>
   <path class="fil1" d="M4703.54 2431.8c-8.53,-0.59 -6.85,-2.65 -5.58,5.65l5.58 -5.65z"/>
   <path class="fil1" d="M5127.56 1408.26l-5.65 -5.75c-0.72,8.45 -2.7,6.62 5.65,5.75z"/>
   <path class="fil1" d="M5104.72 1385.74c1.03,-8.43 2.91,-6.59 -5.48,-5.68l5.48 5.68z"/>
   <path class="fil1" d="M5178.92 1458.53c1.29,-8.3 3.02,-6.32 -5.44,-5.73l5.44 5.73z"/>
   <path class="fil1" d="M4425.88 978.08l-5.26 5.84c8.44,0.51 6.7,2.47 5.26,-5.84z"/>
   <path class="fil3" d="M4822.34 2313.3c-8.49,-1.22 -6.79,-3.18 -5.8,5.13l5.8 -5.13z"/>
   <path class="fil1" d="M4764.9 2368.8c-8.25,-0.33 -6.25,-2.12 -4.83,6.35l4.83 -6.35z"/>
   <path class="fil1" d="M5087.7 1368.85c0.78,-8.25 2.48,-6.19 -6.03,-5.17l6.03 5.17z"/>
   <path class="fil3" d="M5036.67 1318.07c1.43,-8.46 3.41,-6.66 -4.85,-6.3l4.85 6.3z"/>
   <path class="fil1" d="M4708.69 2425.75l-5.15 6.05c8.21,0.62 6.2,2.37 5.15,-6.05z"/>
   <path class="fil1" d="M5099.24 1380.06l-6.28 -5.11c-0.53,8.12 -2.22,5.98 6.28,5.11z"/>
   <path class="fil1" d="M5075.88 1358.04c0.78,-8.47 2.89,-6.84 -5.23,-5.99l5.23 5.99z"/>
   <path class="fil3" d="M4833.17 2301.33c-8.06,-0.62 -5.9,-2.22 -4.82,6.29l4.82 -6.29z"/>
   <path class="fil3" d="M4805.42 2330.24l-6.25 4.85c8.29,1.45 6.43,3.33 6.25,-4.85z"/>
   <path class="fil1" d="M4720.35 2414.72l-5.97 5.24c8.36,0.91 6.61,2.91 5.97,-5.24z"/>
   <path class="fil1" d="M4420.62 983.92c-8.01,-0.54 -5.84,-2.16 -4.92,6.32l4.92 -6.32z"/>
   <path class="fil1" d="M5121.91 1402.5c0.71,-8.36 2.75,-6.66 -5.36,-5.88l5.36 5.88z"/>
   <path class="fil3" d="M5002.95 1283.97l-4.96 -6.14c-1.01,8.33 -3.05,6.65 4.96,6.14z"/>
   <path class="fil1" d="M5133.76 1413.32c0.47,-7.97 2.16,-5.87 -6.19,-5.06l6.19 5.06z"/>
   <path class="fil1" d="M5173.48 1452.8c0.28,-8.03 2.12,-6.11 -6.07,-5.11l6.07 5.11z"/>
   <path class="fil1" d="M4725.16 2408.25l-4.81 6.47c7.86,0.32 5.66,1.95 4.81,-6.47z"/>
   <path class="fil3" d="M5020.26 1300.43c0.06,-7.96 1.84,-6.01 -6.38,-4.6l6.38 4.6z"/>
   <path class="fil1" d="M4414.77 2160l-5.72 5.4c8.07,0.91 6.16,2.71 5.72,-5.4z"/>
   <polygon class="fil3" points="4528.53,926.16 4510.51,933.96 "/>
   <polygon class="fil1" points="4089.39,1894.25 4079.18,1889.3 "/>
   <polygon class="fil1" points="4368.33,1068.14 4378.36,1054.08 "/>
   <polygon class="fil3" points="4105.2,1900.65 4092.11,1893.72 "/>
   <polygon class="fil3" points="5339.59,1649.69 5329.79,1635.02 "/>
   <polygon class="fil1" points="4368.73,1174.41 4364.68,1161.77 "/>
   <polygon class="fil2" points="4369.18,2246.42 4376.02,2232.55 "/>
   <polygon class="fil3" points="3956.94,1658.82 3963.67,1645.44 "/>
   <polygon class="fil3" points="5342.84,1669.64 5336.81,1655.01 "/>
   <polygon class="fil1" points="4109.94,1509.1 4095.01,1518.17 "/>
   <polygon class="fil1" points="3965.11,1762.71 3956.15,1747.11 "/>
   <polygon class="fil3" points="5336.75,1754.92 5342.89,1740.54 "/>
   <polygon class="fil3" points="4368.68,2250.81 4364.83,2265.21 "/>
   <polygon class="fil3" points="4087.19,1514.66 4075.94,1522.27 "/>
   <polygon class="fil1" points="4627.66,941.44 4612.95,932.12 "/>
   <polygon class="fil1" points="4633,2477.73 4621.91,2482.46 "/>
   <polygon class="fil3" points="4523.33,2488.85 4509.4,2482.58 "/>
   <polygon class="fil1" points="4611.63,2484.03 4599.34,2487.99 "/>
   <polygon class="fil3" points="4502.91,934.04 4490.83,938.39 "/>
   <polygon class="fil1" points="4604.75,932.5 4588.53,927.21 "/>
  </g>
 </g>
</svg>
